<?xml version="1.0" encoding="utf-8"?>
<svg viewBox="152.393 369.35 223.795 39.096" xmlns="http://www.w3.org/2000/svg">
  <path d="M 152.3929979248047 407.79803466796875 L 152.3929979248047 369.99803466796874 L 157.0909979248047 369.99803466796874 L 157.0909979248047 388.52003466796873 L 171.8329979248047 369.99803466796874 L 177.1249979248047 369.99803466796874 L 166.7029979248047 383.0660346679688 L 180.2029979248047 407.79803466796875 L 174.74899792480468 407.79803466796875 L 163.51699792480468 387.00803466796873 L 157.0909979248047 394.89203466796874 L 157.0909979248047 407.79803466796875 Z M 187.949470703125 407.79803466796875 L 187.949470703125 369.99803466796874 L 192.647470703125 369.99803466796874 L 192.647470703125 407.79803466796875 Z M 211.11569384765625 407.79803466796875 L 211.11569384765625 374.48003466796877 L 200.58569384765624 374.48003466796877 L 200.58569384765624 369.99803466796874 L 226.34369384765625 369.99803466796874 L 226.34369384765625 374.48003466796877 L 215.81369384765625 374.48003466796877 L 215.81369384765625 407.79803466796875 Z" style="fill: rgba(113, 113, 113, 0.61); white-space: pre;"/>
  <path d="M 234.498298828125 407.79803466796875 L 234.498298828125 369.99803466796874 L 247.890298828125 369.99803466796874 Q 252.372298828125 369.99803466796874 254.937298828125 371.44253466796874 Q 257.502298828125 372.88703466796875 258.582298828125 375.18203466796876 Q 259.662298828125 377.4770346679687 259.662298828125 379.98803466796875 Q 259.662298828125 382.58003466796873 258.204298828125 384.65903466796874 Q 256.746298828125 386.73803466796875 254.100298828125 387.87203466796876 Q 256.287298828125 388.5470346679688 257.839798828125 389.85653466796873 Q 259.392298828125 391.16603466796874 260.202298828125 392.97503466796877 Q 261.012298828125 394.78403466796874 261.012298828125 396.94403466796877 Q 261.012298828125 398.86103466796874 260.391298828125 400.77803466796877 Q 259.770298828125 402.69503466796874 258.352798828125 404.28803466796876 Q 256.935298828125 405.8810346679688 254.572798828125 406.83953466796873 Q 252.210298828125 407.79803466796875 248.754298828125 407.79803466796875 Z M 239.196298828125 403.47803466796876 L 249.294298828125 403.47803466796876 Q 252.075298828125 403.47803466796876 253.61429882812502 402.56003466796875 Q 255.153298828125 401.64203466796874 255.760798828125 400.21103466796876 Q 256.368298828125 398.7800346679687 256.368298828125 397.2680346679688 Q 256.368298828125 395.45903466796875 255.639298828125 393.86603466796873 Q 254.910298828125 392.2730346679688 253.006798828125 391.28753466796877 Q 251.103298828125 390.30203466796877 247.566298828125 390.30203466796877 L 239.196298828125 390.30203466796877 Z M 239.196298828125 386.03603466796875 L 246.972298828125 386.03603466796875 Q 250.995298828125 386.03603466796875 253.006798828125 384.38903466796876 Q 255.018298828125 382.74203466796877 255.018298828125 380.0420346679688 Q 255.018298828125 378.66503466796877 254.491798828125 377.32853466796877 Q 253.96529882812501 375.99203466796877 252.480298828125 375.12803466796873 Q 250.995298828125 374.26403466796876 248.160298828125 374.26403466796876 L 239.196298828125 374.26403466796876 Z M 284.2015771484375 408.4460346679688 Q 279.7465771484375 408.4460346679688 276.6685771484375 406.73153466796873 Q 273.5905771484375 405.01703466796874 271.7275771484375 402.16853466796874 Q 269.8645771484375 399.32003466796874 269.0140771484375 395.8640346679687 Q 268.1635771484375 392.40803466796876 268.1635771484375 388.8980346679688 Q 268.1635771484375 385.3880346679687 269.0140771484375 381.93203466796876 Q 269.8645771484375 378.47603466796875 271.7275771484375 375.62753466796875 Q 273.5905771484375 372.77903466796874 276.6685771484375 371.06453466796876 Q 279.7465771484375 369.35003466796877 284.2015771484375 369.35003466796877 Q 288.6835771484375 369.35003466796877 291.7615771484375 371.06453466796876 Q 294.8395771484375 372.77903466796874 296.7025771484375 375.62753466796875 Q 298.5655771484375 378.47603466796875 299.4025771484375 381.93203466796876 Q 300.2395771484375 385.3880346679687 300.2395771484375 388.8980346679688 Q 300.2395771484375 392.40803466796876 299.4025771484375 395.8640346679687 Q 298.5655771484375 399.32003466796874 296.7025771484375 402.16853466796874 Q 294.8395771484375 405.01703466796874 291.7615771484375 406.73153466796873 Q 288.6835771484375 408.4460346679688 284.2015771484375 408.4460346679688 Z M 284.2015771484375 404.0180346679688 Q 287.3335771484375 404.0180346679688 289.4665771484375 402.64103466796877 Q 291.5995771484375 401.26403466796876 292.9090771484375 399.00953466796875 Q 294.2185771484375 396.75503466796874 294.7990771484375 394.09553466796876 Q 295.3795771484375 391.4360346679687 295.3795771484375 388.8980346679688 Q 295.3795771484375 386.11703466796877 294.7990771484375 383.43053466796874 Q 294.2185771484375 380.7440346679688 292.9090771484375 378.54353466796874 Q 291.5995771484375 376.34303466796877 289.4665771484375 375.03353466796875 Q 287.3335771484375 373.72403466796874 284.2015771484375 373.72403466796874 Q 281.0965771484375 373.72403466796874 278.9635771484375 375.10103466796875 Q 276.8305771484375 376.47803466796876 275.5210771484375 378.73253466796876 Q 274.2115771484375 380.98703466796877 273.6175771484375 383.6600346679688 Q 273.0235771484375 386.3330346679688 273.0235771484375 388.8980346679688 Q 273.0235771484375 391.6790346679687 273.6175771484375 394.36553466796875 Q 274.2115771484375 397.05203466796877 275.5210771484375 399.2390346679687 Q 276.8305771484375 401.42603466796874 278.9635771484375 402.7220346679687 Q 281.0965771484375 404.0180346679688 284.2015771484375 404.0180346679688 Z M 323.62259765625 408.4460346679688 Q 319.16759765625 408.4460346679688 316.08959765625 406.73153466796873 Q 313.01159765625 405.01703466796874 311.14859765625 402.16853466796874 Q 309.28559765625 399.32003466796874 308.43509765625 395.8640346679687 Q 307.58459765625 392.40803466796876 307.58459765625 388.8980346679688 Q 307.58459765625 385.3880346679687 308.43509765625 381.93203466796876 Q 309.28559765625 378.47603466796875 311.14859765625 375.62753466796875 Q 313.01159765625 372.77903466796874 316.08959765625 371.06453466796876 Q 319.16759765625 369.35003466796877 323.62259765625 369.35003466796877 Q 328.10459765625 369.35003466796877 331.18259765625 371.06453466796876 Q 334.26059765625 372.77903466796874 336.12359765625 375.62753466796875 Q 337.98659765625 378.47603466796875 338.82359765625 381.93203466796876 Q 339.66059765625 385.3880346679687 339.66059765625 388.8980346679688 Q 339.66059765625 392.40803466796876 338.82359765625 395.8640346679687 Q 337.98659765625 399.32003466796874 336.12359765625 402.16853466796874 Q 334.26059765625 405.01703466796874 331.18259765625 406.73153466796873 Q 328.10459765625 408.4460346679688 323.62259765625 408.4460346679688 Z M 323.62259765625 404.0180346679688 Q 326.75459765625 404.0180346679688 328.88759765625 402.64103466796877 Q 331.02059765625 401.26403466796876 332.33009765625 399.00953466796875 Q 333.63959765625 396.75503466796874 334.22009765625 394.09553466796876 Q 334.80059765625 391.4360346679687 334.80059765625 388.8980346679688 Q 334.80059765625 386.11703466796877 334.22009765625 383.43053466796874 Q 333.63959765625 380.7440346679688 332.33009765625 378.54353466796874 Q 331.02059765625 376.34303466796877 328.88759765625 375.03353466796875 Q 326.75459765625 373.72403466796874 323.62259765625 373.72403466796874 Q 320.51759765625 373.72403466796874 318.38459765625 375.10103466796875 Q 316.25159765625 376.47803466796876 314.94209765625 378.73253466796876 Q 313.63259765625 380.98703466796877 313.03859765625 383.6600346679688 Q 312.44459765625 386.3330346679688 312.44459765625 388.8980346679688 Q 312.44459765625 391.6790346679687 313.03859765625 394.36553466796875 Q 313.63259765625 397.05203466796877 314.94209765625 399.2390346679687 Q 316.25159765625 401.42603466796874 318.38459765625 402.7220346679687 Q 320.51759765625 404.0180346679688 323.62259765625 404.0180346679688 Z M 348.37802905273435 407.79803466796875 L 348.37802905273435 369.99803466796874 L 353.0760290527344 369.99803466796874 L 353.0760290527344 388.52003466796873 L 367.81802905273435 369.99803466796874 L 373.1100290527344 369.99803466796874 L 362.68802905273435 383.0660346679688 L 376.18802905273435 407.79803466796875 L 370.7340290527344 407.79803466796875 L 359.5020290527344 387.00803466796873 L 353.0760290527344 394.89203466796874 L 353.0760290527344 407.79803466796875 Z" style="fill: rgb(113, 113, 113); white-space: pre;"/>
</svg>