<?xml version="1.0" encoding="utf-8"?>
<svg viewBox="57.712 39.365 377.88 419.864" xmlns="http://www.w3.org/2000/svg">
  <rect x="93.34" y="360" width="342.252" height="58" style="paint-order: fill; fill: rgb(255, 255, 255);"/>
  <path d="M 435.59 360.694 L 120.691 360.694 C 104.531 360.694 88.873 383.935 102.512 406.746 C 106.361 413.183 113.192 417.242 120.691 417.242 L 435.59 417.242 L 435.59 459.229 L 120.691 459.229 C 85.909 459.229 57.712 431.033 57.712 396.249 L 57.712 81.351 C 57.712 58.162 76.511 39.365 99.698 39.365 L 435.59 39.365 L 435.59 360.694 Z M 330.623 186.317 L 330.623 144.33 L 162.679 144.33 L 162.679 186.317 L 330.623 186.317 Z" style="fill: rgb(255, 179, 153);"/>
  <g transform="matrix(0.872687, 0, 0, 0.872687, 141.917805, 59.424875)" style="">
    <path d="M239.681566,40.706757 C211.113272,-0.181889366 154.69089,-12.301439 113.894816,13.6910393 L42.2469062,59.3555354 C22.6760042,71.6680028 9.1958152,91.6538543 5.11196889,114.412133 C1.69420521,133.371174 4.6982178,152.928576 13.6483951,169.987905 C7.51549676,179.291145 3.33259428,189.7413 1.3524912,200.706787 C-2.77083771,223.902098 2.62286977,247.780539 16.3159596,266.951444 C44.8902975,307.843936 101.312954,319.958266 142.10271,293.967161 L213.75062,248.302665 C233.322905,235.991626 246.803553,216.005094 250.885557,193.246067 C254.302867,174.287249 251.30121,154.730228 242.355449,137.668922 C248.486748,128.365895 252.667894,117.916162 254.646134,106.951413 C258.772188,83.7560394 253.378243,59.8765465 239.682665,40.706757" fill="#FF3E00"/>
    <path d="M106.888658,270.841265 C83.7871855,276.848065 59.3915045,267.805346 45.7864111,248.192566 C37.5477583,236.66102 34.3023491,222.296573 36.7830958,208.343155 C37.1989333,206.075414 37.7711933,203.839165 38.4957755,201.650433 L39.845476,197.534835 L43.5173097,200.231763 C51.9971301,206.462491 61.4784803,211.199728 71.5527203,214.239302 L74.2164003,215.047419 L73.9710252,217.705878 C73.6455499,221.487851 74.6696022,225.262925 76.8616703,228.361972 C80.9560313,234.269749 88.3011363,236.995968 95.2584831,235.190159 C96.8160691,234.773852 98.3006859,234.121384 99.6606718,233.25546 L171.331634,187.582718 C174.877468,185.349963 177.321139,181.729229 178.065299,177.605596 C178.808171,173.400048 177.830501,169.072361 175.351884,165.594581 C171.255076,159.685578 163.908134,156.9582 156.947927,158.762547 C155.392392,159.178888 153.90975,159.83088 152.551509,160.695872 L125.202489,178.130144 C120.705281,180.989558 115.797437,183.144784 110.64897,184.521162 C87.547692,190.527609 63.1523949,181.484801 49.5475471,161.872188 C41.3085624,150.340895 38.0631179,135.976391 40.5442317,122.023052 C43.0002744,108.333716 51.1099574,96.3125326 62.8835328,88.9089537 L134.548175,43.2323647 C139.047294,40.3682559 143.958644,38.21032 149.111311,36.8336525 C172.21244,30.8273594 196.607527,39.8700206 210.212459,59.4823515 C218.451112,71.013898 221.696522,85.3783452 219.215775,99.3317627 C218.798144,101.59911 218.225915,103.835236 217.503095,106.024485 L216.153395,110.140083 L212.483484,107.447276 C204.004261,101.212984 194.522,96.4735732 184.44615,93.4336926 L181.78247,92.6253012 L182.027845,89.9668419 C182.350522,86.1852063 181.326723,82.4111645 179.1372,79.3110228 C175.042839,73.4032457 167.697734,70.677026 160.740387,72.4828355 C159.182801,72.8991426 157.698185,73.5516104 156.338199,74.4175344 L84.6672364,120.0922 C81.1218886,122.323199 78.6795938,125.943704 77.9387928,130.066574 C77.1913232,134.271925 78.1673502,138.601163 80.6469865,142.078963 C84.7438467,147.987899 92.0907405,150.71526 99.0509435,148.910997 C100.608143,148.493836 102.092543,147.841423 103.452857,146.976298 L130.798305,129.548621 C135.293566,126.685437 140.201191,124.528302 145.350175,123.152382 C168.451453,117.145935 192.846751,126.188743 206.451598,145.801356 C214.690583,157.332649 217.936027,171.697153 215.454914,185.650492 C212.997261,199.340539 204.888162,211.362752 193.115613,218.769811 L121.450695,264.442553 C116.951576,267.306662 112.040226,269.464598 106.887559,270.841265" fill="#FFFFFF"/>
  </g>
  <path d="M 152.12299792480468 407.7980041503906 L 152.12299792480468 369.9980041503906 L 157.5769979248047 369.9980041503906 L 157.5769979248047 388.3850041503906 L 172.2109979248047 369.9980041503906 L 178.47499792480468 369.9980041503906 L 167.89099792480468 383.20100415039065 L 181.33699792480468 407.7980041503906 L 174.9649979248047 407.7980041503906 L 164.16499792480468 387.7910041503906 L 157.5769979248047 395.91800415039063 L 157.5769979248047 407.7980041503906 Z M 188.56133715820312 407.7980041503906 L 188.56133715820312 369.9980041503906 L 194.01533715820312 369.9980041503906 L 194.01533715820312 407.7980041503906 Z M 212.0282033691406 407.7980041503906 L 212.0282033691406 375.2360041503906 L 201.44420336914064 375.2360041503906 L 201.44420336914064 369.9980041503906 L 228.0932033691406 369.9980041503906 L 228.0932033691406 375.2360041503906 L 217.48220336914062 375.2360041503906 L 217.48220336914062 407.7980041503906 Z" transform="matrix(1, 0, 0, 1, 0, 0)" style="fill: rgb(99, 99, 99); white-space: pre;"/>
  <path d="M 235.708279296875 407.7980041503906 L 235.708279296875 369.9980041503906 L 250.072279296875 369.9980041503906 Q 254.608279296875 369.9980041503906 257.200279296875 371.45600415039064 Q 259.792279296875 372.9140041503906 260.899279296875 375.22250415039065 Q 262.006279296875 377.53100415039063 262.006279296875 380.04200415039065 Q 262.006279296875 382.60700415039065 260.656279296875 384.6995041503906 Q 259.306279296875 386.79200415039065 256.714279296875 387.9260041503906 Q 258.847279296875 388.6010041503906 260.332279296875 389.9375041503906 Q 261.817279296875 391.2740041503906 262.573279296875 393.04250415039064 Q 263.32927929687503 394.8110041503906 263.32927929687503 396.83600415039064 Q 263.32927929687503 398.7800041503906 262.694779296875 400.7240041503906 Q 262.060279296875 402.66800415039063 260.615779296875 404.2745041503906 Q 259.171279296875 405.88100415039065 256.781779296875 406.8395041503906 Q 254.392279296875 407.7980041503906 250.909279296875 407.7980041503906 Z M 241.162279296875 402.7220041503906 L 251.422279296875 402.7220041503906 Q 253.933279296875 402.7220041503906 255.350779296875 401.8850041503906 Q 256.768279296875 401.0480041503906 257.321779296875 399.7385041503906 Q 257.875279296875 398.4290041503906 257.875279296875 397.05200415039064 Q 257.875279296875 395.43200415039064 257.213779296875 393.9740041503906 Q 256.552279296875 392.51600415039064 254.783779296875 391.6115041503906 Q 253.015279296875 390.7070041503906 249.748279296875 390.7070041503906 L 241.162279296875 390.7070041503906 Z M 241.162279296875 385.76600415039064 L 249.181279296875 385.76600415039064 Q 252.880279296875 385.76600415039064 254.716279296875 384.2675041503906 Q 256.552279296875 382.76900415039063 256.552279296875 380.28500415039065 Q 256.552279296875 379.04300415039063 256.066279296875 377.81450415039063 Q 255.580279296875 376.58600415039064 254.230279296875 375.8030041503906 Q 252.880279296875 375.0200041503906 250.288279296875 375.0200041503906 L 241.162279296875 375.0200041503906 Z M 286.27019677734376 408.44600415039065 Q 281.7881967773437 408.44600415039065 278.68319677734377 406.7315041503906 Q 275.57819677734375 405.0170041503906 273.68819677734376 402.1685041503906 Q 271.7981967773438 399.3200041503906 270.93419677734374 395.8640041503906 Q 270.07019677734377 392.40800415039064 270.07019677734377 388.89800415039065 Q 270.07019677734377 385.3880041503906 270.93419677734374 381.93200415039064 Q 271.7981967773438 378.4760041503906 273.68819677734376 375.6275041503906 Q 275.57819677734375 372.7790041503906 278.68319677734377 371.06450415039063 Q 281.7881967773437 369.35000415039065 286.27019677734376 369.35000415039065 Q 290.7521967773437 369.35000415039065 293.85719677734374 371.06450415039063 Q 296.96219677734376 372.7790041503906 298.85219677734375 375.6275041503906 Q 300.74219677734374 378.4760041503906 301.59269677734375 381.93200415039064 Q 302.44319677734376 385.3880041503906 302.44319677734376 388.89800415039065 Q 302.44319677734376 392.40800415039064 301.59269677734375 395.8640041503906 Q 300.74219677734374 399.3200041503906 298.85219677734375 402.1685041503906 Q 296.96219677734376 405.0170041503906 293.85719677734374 406.7315041503906 Q 290.7521967773437 408.44600415039065 286.27019677734376 408.44600415039065 Z M 286.27019677734376 403.2620041503906 Q 289.18619677734375 403.2620041503906 291.19769677734377 401.93900415039064 Q 293.2091967773438 400.6160041503906 294.45119677734374 398.4830041503906 Q 295.69319677734376 396.35000415039065 296.2331967773438 393.8255041503906 Q 296.77319677734374 391.3010041503906 296.77319677734374 388.89800415039065 Q 296.77319677734374 386.2790041503906 296.2331967773438 383.72750415039064 Q 295.69319677734376 381.1760041503906 294.46469677734376 379.08350415039064 Q 293.23619677734376 376.9910041503906 291.22469677734375 375.7355041503906 Q 289.21319677734374 374.48000415039064 286.27019677734376 374.48000415039064 Q 283.3271967773438 374.48000415039064 281.31569677734376 375.8030041503906 Q 279.30419677734375 377.1260041503906 278.07569677734375 379.2725041503906 Q 276.84719677734375 381.4190041503906 276.29369677734377 383.94350415039065 Q 275.7401967773437 386.46800415039064 275.7401967773437 388.89800415039065 Q 275.7401967773437 391.49000415039063 276.29369677734377 394.0415041503906 Q 276.84719677734375 396.59300415039064 278.07569677734375 398.6855041503906 Q 279.30419677734375 400.77800415039064 281.31569677734376 402.0200041503906 Q 283.3271967773438 403.2620041503906 286.27019677734376 403.2620041503906 Z M 325.5523623046875 408.44600415039065 Q 321.0703623046875 408.44600415039065 317.9653623046875 406.7315041503906 Q 314.8603623046875 405.0170041503906 312.9703623046875 402.1685041503906 Q 311.0803623046875 399.3200041503906 310.2163623046875 395.8640041503906 Q 309.3523623046875 392.40800415039064 309.3523623046875 388.89800415039065 Q 309.3523623046875 385.3880041503906 310.2163623046875 381.93200415039064 Q 311.0803623046875 378.4760041503906 312.9703623046875 375.6275041503906 Q 314.8603623046875 372.7790041503906 317.9653623046875 371.06450415039063 Q 321.0703623046875 369.35000415039065 325.5523623046875 369.35000415039065 Q 330.0343623046875 369.35000415039065 333.1393623046875 371.06450415039063 Q 336.2443623046875 372.7790041503906 338.1343623046875 375.6275041503906 Q 340.0243623046875 378.4760041503906 340.8748623046875 381.93200415039064 Q 341.7253623046875 385.3880041503906 341.7253623046875 388.89800415039065 Q 341.7253623046875 392.40800415039064 340.8748623046875 395.8640041503906 Q 340.0243623046875 399.3200041503906 338.1343623046875 402.1685041503906 Q 336.2443623046875 405.0170041503906 333.1393623046875 406.7315041503906 Q 330.0343623046875 408.44600415039065 325.5523623046875 408.44600415039065 Z M 325.5523623046875 403.2620041503906 Q 328.4683623046875 403.2620041503906 330.4798623046875 401.93900415039064 Q 332.4913623046875 400.6160041503906 333.7333623046875 398.4830041503906 Q 334.9753623046875 396.35000415039065 335.5153623046875 393.8255041503906 Q 336.0553623046875 391.3010041503906 336.0553623046875 388.89800415039065 Q 336.0553623046875 386.2790041503906 335.5153623046875 383.72750415039064 Q 334.9753623046875 381.1760041503906 333.7468623046875 379.08350415039064 Q 332.5183623046875 376.9910041503906 330.5068623046875 375.7355041503906 Q 328.4953623046875 374.48000415039064 325.5523623046875 374.48000415039064 Q 322.6093623046875 374.48000415039064 320.5978623046875 375.8030041503906 Q 318.5863623046875 377.1260041503906 317.3578623046875 379.2725041503906 Q 316.1293623046875 381.4190041503906 315.5758623046875 383.94350415039065 Q 315.0223623046875 386.46800415039064 315.0223623046875 388.89800415039065 Q 315.0223623046875 391.49000415039063 315.5758623046875 394.0415041503906 Q 316.1293623046875 396.59300415039064 317.3578623046875 398.6855041503906 Q 318.5863623046875 400.77800415039064 320.5978623046875 402.0200041503906 Q 322.6093623046875 403.2620041503906 325.5523623046875 403.2620041503906 Z M 349.98177783203124 407.7980041503906 L 349.98177783203124 369.9980041503906 L 355.43577783203125 369.9980041503906 L 355.43577783203125 388.3850041503906 L 370.06977783203126 369.9980041503906 L 376.3337778320313 369.9980041503906 L 365.74977783203127 383.20100415039065 L 379.19577783203124 407.7980041503906 L 372.8237778320312 407.7980041503906 L 362.02377783203127 387.7910041503906 L 355.43577783203125 395.91800415039063 L 355.43577783203125 407.7980041503906 Z" transform="matrix(1, 0, 0, 1, 0, 0)" style="fill: rgb(51, 51, 51); white-space: pre;"/>
</svg>